<svg xmlns="http://www.w3.org/2000/svg" viewBox="0 0 82 82"><defs><style>.cls-1{fill:#fff;}</style></defs><title>LinkedIn</title><g id="Layer_2" data-name="Layer 2"><g id="Icons"><path class="cls-1" d="M41,82A41,41,0,1,1,82,41,41,41,0,0,1,41,82ZM41,2A39,39,0,1,0,80,41,39,39,0,0,0,41,2Z"/><path class="cls-1" d="M30.93,55.91h-7V33.43h7ZM27.24,30.62h-.05A3.9,3.9,0,0,1,23,26.72c0-2.22,1.69-3.9,4.29-3.9a3.92,3.92,0,0,1,4.23,3.9C31.52,28.9,29.87,30.62,27.24,30.62ZM59,55.91H51V44.28c0-3-1.24-5.12-4-5.12a4,4,0,0,0-3.8,2.75,5.09,5.09,0,0,0-.17,1.83V55.91H35.21s.1-20.6,0-22.47h7.88V37c.47-1.54,3-3.74,7-3.74,5,0,8.91,3.23,8.91,10.19Z"/></g></g></svg>