<svg xmlns="http://www.w3.org/2000/svg" viewBox="0 0 82 82"><defs><style>.cls-1{fill:#fff;}</style></defs><title>Twitter</title><g id="Layer_2" data-name="Layer 2"><g id="Icons"><path class="cls-1" d="M41,82A41,41,0,1,1,82,41,41,41,0,0,1,41,82ZM41,2A39,39,0,1,0,80,41,39,39,0,0,0,41,2Z"/><path class="cls-1" d="M59,31.78a14.8,14.8,0,0,1-4.24,1.16A7.38,7.38,0,0,0,58,28.86a14.73,14.73,0,0,1-4.69,1.79A7.39,7.39,0,0,0,40.54,35.7a7.28,7.28,0,0,0,.19,1.68A21,21,0,0,1,25.5,29.67a7.4,7.4,0,0,0,2.29,9.86,7.4,7.4,0,0,1-3.35-.92v.09a7.39,7.39,0,0,0,5.93,7.24,7.2,7.2,0,0,1-1.95.26A7.31,7.31,0,0,1,27,46.07a7.38,7.38,0,0,0,6.9,5.13A14.94,14.94,0,0,1,23,54.26a20.92,20.92,0,0,0,11.32,3.32c13.59,0,21-11.25,21-21,0-.32,0-.64,0-1A15,15,0,0,0,59,31.78"/></g></g></svg>